<?xml version="1.0" standalone="no"?>
<!DOCTYPE svg PUBLIC "-//W3C//DTD SVG 20010904//EN"
 "http://www.w3.org/TR/2001/REC-SVG-20010904/DTD/svg10.dtd">
<svg version="1.0" xmlns="http://www.w3.org/2000/svg"
 width="244.000000pt" height="97.000000pt" viewBox="0 0 244.000000 97.000000"
 preserveAspectRatio="xMidYMid meet">

<g transform="translate(0.000000,97.000000) scale(0.100000,-0.100000)"
fill="#000000" stroke="none">
<path d="M2374 601 c7 -366 7 -367 -46 -359 -18 2 -27 16 -45 68 -28 82 -53
104 -112 97 -51 -6 -61 -17 -61 -74 0 -35 5 -45 31 -63 36 -27 36 -54 -2 -83
-23 -17 -32 -18 -61 -8 -42 14 -83 56 -92 94 -10 41 11 103 45 135 26 24 28
30 16 40 -12 10 -21 8 -46 -14 -44 -37 -61 -74 -61 -136 0 -40 6 -62 24 -89
26 -37 78 -69 115 -69 55 0 131 58 131 100 0 9 -18 33 -40 54 -22 20 -40 42
-40 49 0 20 22 37 45 37 29 0 51 -26 70 -80 21 -60 51 -90 90 -90 35 0 67 28
84 73 7 18 11 144 11 343 l0 314 -32 0 -31 0 7 -339z"/>
<path d="M2000 882 c0 -60 -6 -67 -38 -42 -34 28 -69 25 -101 -8 -51 -50 -48
-164 4 -198 31 -21 81 -21 103 -1 23 21 32 21 32 2 0 -8 9 -15 20 -15 19 0 20
7 20 155 0 148 -1 155 -20 155 -17 0 -20 -7 -20 -48z m-26 -88 c58 -57 -2
-164 -68 -121 -41 28 -43 102 -2 129 19 13 54 9 70 -8z"/>
<path d="M1582 903 c-11 -4 -42 -54 -42 -68 0 -3 14 -5 30 -5 20 0 30 5 30 15
0 38 100 42 120 4 21 -38 -2 -56 -80 -63 -84 -9 -110 -28 -110 -82 0 -19 4
-44 10 -54 24 -44 119 -44 166 1 l24 22 0 -21 c0 -17 6 -22 26 -22 l26 0 -4
126 c-5 152 -7 154 -112 153 -39 0 -77 -3 -84 -6z m138 -193 c-23 -55 -107
-67 -124 -18 -13 36 6 58 53 59 20 0 45 4 56 8 25 10 31 -10 15 -49z"/>
<path d="M2164 849 c-49 -14 -59 -34 -59 -115 0 -84 10 -101 69 -114 85 -19
136 24 136 115 0 65 -22 102 -68 114 -20 6 -39 11 -42 10 -3 0 -19 -5 -36 -10z
m90 -58 c23 -26 23 -86 0 -112 -24 -27 -78 -25 -98 3 -37 53 -9 128 48 128 20
0 40 -8 50 -19z"/>
<path d="M29 641 l-23 -18 19 -63 c10 -35 21 -58 23 -51 2 6 -3 32 -12 58 -15
43 -15 48 1 65 9 10 27 18 39 18 20 0 26 -9 43 -67 51 -171 71 -249 71 -271 0
-77 -79 -95 -81 -18 0 17 -13 65 -29 106 -36 93 -39 80 -5 -20 14 -40 25 -86
25 -102 0 -16 6 -31 13 -34 8 -3 11 -18 9 -44 -6 -56 18 -90 62 -90 38 0 47
13 45 63 -2 29 -2 28 -8 -8 -5 -34 -10 -40 -33 -43 -52 -6 -79 86 -33 112 47
26 57 78 31 158 -8 24 -26 88 -41 143 -15 55 -32 106 -37 113 -15 18 -52 15
-79 -7z"/>
<path d="M1215 580 c-17 -18 -17 -24 5 -138 13 -65 20 -126 17 -135 -9 -23
-83 -17 -101 8 -14 20 -47 17 -54 -5 -4 -13 -3 -13 11 -2 26 22 39 5 32 -43
-8 -50 7 -85 35 -85 30 0 26 36 -5 44 -16 4 -25 13 -25 26 0 26 15 33 69 34
44 1 46 2 49 33 2 18 -6 80 -18 138 -20 97 -20 106 -5 121 9 9 18 14 21 12 11
-11 44 -213 44 -269 0 -56 -2 -61 -30 -77 -23 -13 -30 -24 -30 -47 0 -76 -75
-103 -124 -44 -14 17 -26 24 -26 17 0 -8 11 -25 25 -38 53 -50 135 -19 135 50
0 19 9 36 26 49 48 38 50 86 9 288 -8 40 -15 75 -15 78 0 12 -28 3 -45 -15z
m-45 -380 c0 -5 -4 -10 -9 -10 -6 0 -13 5 -16 10 -3 6 1 10 9 10 9 0 16 -4 16
-10z"/>
<path d="M714 565 c-4 -8 -2 -50 4 -93 l11 -77 -6 88 c-5 82 -4 87 15 87 16 0
21 -9 26 -42 4 -24 16 -98 28 -166 12 -67 19 -125 15 -128 -3 -3 -14 -3 -25 0
-14 5 -23 23 -32 68 -8 34 -15 57 -18 50 -2 -7 2 -35 8 -63 14 -59 51 -93 75
-68 11 12 9 36 -11 149 -39 215 -36 205 -62 208 -13 2 -25 -3 -28 -13z"/>
<path d="M1511 462 c-6 -11 -6 -24 0 -35 7 -12 5 -23 -11 -39 -11 -12 -20 -31
-20 -41 0 -19 -1 -19 -20 -2 -27 24 -47 13 -60 -34 -6 -23 -37 -73 -71 -116
-44 -54 -59 -80 -54 -94 7 -22 28 -33 50 -25 17 7 95 102 95 116 0 5 -19 -15
-43 -44 -44 -54 -82 -72 -93 -44 -4 9 16 40 53 84 40 45 64 84 73 116 15 55
39 59 52 10 4 -18 15 -34 23 -37 17 -7 30 9 15 18 -19 11 -11 65 13 89 17 17
20 27 13 38 -10 17 -2 48 14 48 6 0 18 -9 27 -20 11 -13 30 -20 53 -20 20 0
46 -7 59 -16 20 -14 22 -22 17 -57 -7 -44 12 -77 46 -77 22 0 24 37 3 95 -19
52 -19 62 4 68 36 9 67 -114 46 -184 -6 -20 -5 -22 6 -11 22 21 16 119 -10
170 -19 36 -25 42 -44 36 -12 -3 -24 -8 -26 -10 -3 -3 3 -36 13 -75 20 -76 17
-92 -14 -64 -16 14 -19 26 -14 55 8 50 -20 80 -74 80 -26 0 -45 7 -57 20 -22
25 -51 26 -64 2z"/>
<path d="M1392 448 c-29 -29 -2 -72 40 -66 29 4 35 34 12 59 -20 22 -35 24
-52 7z m43 -14 c18 -18 15 -38 -6 -41 -25 -5 -42 13 -34 36 8 25 18 27 40 5z"/>
<path d="M850 430 c-8 -16 -7 -39 5 -96 19 -84 14 -132 -15 -159 -20 -18 -25
-49 -14 -79 9 -24 84 -19 84 6 0 6 -6 6 -14 -2 -8 -6 -25 -10 -38 -8 -33 4
-34 38 -4 83 30 43 32 81 11 169 -16 68 -7 101 26 93 10 -3 19 -1 19 4 0 18
-49 9 -60 -11z"/>
<path d="M450 425 c-10 -12 -10 -24 -1 -54 20 -70 16 -81 -29 -78 -28 1 -42 7
-46 20 -8 27 -49 21 -62 -8 -33 -71 -1 -173 61 -194 43 -15 79 10 91 66 10 43
39 71 59 55 20 -16 144 -13 157 4 17 19 7 100 -19 158 l-19 45 -54 -1 c-29 0
-58 -5 -65 -10 -7 -5 -14 -5 -18 2 -9 15 -41 12 -55 -5z m67 -55 c12 -30 24
-64 27 -75 3 -10 8 -16 11 -13 4 3 -1 34 -11 68 -12 43 -14 64 -6 72 16 16 30
1 46 -52 16 -53 35 -94 42 -88 5 6 -26 100 -37 112 -11 12 8 36 28 36 17 0 50
-70 59 -128 10 -60 -4 -72 -80 -68 -35 1 -67 6 -73 9 -5 4 -24 1 -42 -6 -27
-10 -31 -15 -26 -37 9 -40 -28 -82 -68 -78 -60 6 -95 98 -67 173 14 37 46 30
43 -9 -2 -26 -1 -27 16 -12 13 12 25 14 48 7 17 -5 34 -7 37 -3 9 9 7 68 -4
96 -5 14 -7 33 -3 41 11 30 38 10 60 -45z"/>
<path d="M350 241 c0 -24 25 -62 38 -59 27 5 23 23 -8 46 -16 13 -30 18 -30
13z m40 -41 c0 -5 -2 -10 -4 -10 -3 0 -8 5 -11 10 -3 6 -1 10 4 10 6 0 11 -4
11 -10z"/>
<path d="M915 400 c28 -160 28 -172 -1 -268 -3 -9 3 -3 13 13 23 38 22 168 -1
235 -9 25 -14 34 -11 20z"/>
<path d="M1549 349 c-10 -19 -9 -25 7 -36 21 -16 31 -16 39 -3 3 6 -2 10 -13
10 -26 0 -34 11 -21 27 10 11 15 11 27 1 13 -11 14 -10 10 2 -8 24 -36 23 -49
-1z"/>
<path d="M1635 270 c3 -5 8 -10 11 -10 2 0 4 5 4 10 0 6 -5 10 -11 10 -5 0 -7
-4 -4 -10z"/>
<path d="M1072 240 c0 -19 2 -27 5 -17 2 9 2 25 0 35 -3 9 -5 1 -5 -18z"/>
<path d="M205 230 c3 -5 8 -10 11 -10 2 0 4 5 4 10 0 6 -5 10 -11 10 -5 0 -7
-4 -4 -10z"/>
<path d="M1424 231 c-2 -2 -4 -9 -4 -15 0 -6 4 -6 11 1 8 8 20 8 36 2 16 -6
40 -5 69 2 35 9 51 9 69 -1 14 -7 35 -10 52 -6 40 10 46 10 69 3 11 -4 28 -1
37 5 15 11 9 12 -35 10 -58 -4 -80 -4 -211 0 -49 2 -91 1 -93 -1z"/>
<path d="M1702 178 c-16 -16 -16 -54 1 -61 7 -2 30 -2 52 2 36 6 40 9 40 36 0
28 -3 30 -40 33 -23 2 -46 -3 -53 -10z m86 -25 c3 -21 -1 -23 -42 -23 -31 0
-46 4 -46 13 0 23 24 38 55 35 22 -2 31 -9 33 -25z"/>
<path d="M2194 126 c-8 -21 13 -46 32 -39 20 8 13 47 -9 51 -9 2 -20 -4 -23
-12z"/>
<path d="M2281 127 c-13 -17 -4 -50 13 -44 15 5 20 37 9 48 -6 6 -14 4 -22 -4z"/>
<path d="M388 73 c6 -2 18 -2 25 0 6 3 1 5 -13 5 -14 0 -19 -2 -12 -5z"/>
<path d="M1153 73 c9 -2 25 -2 35 0 9 3 1 5 -18 5 -19 0 -27 -2 -17 -5z"/>
<path d="M343 54 c-10 -27 18 -44 65 -37 38 5 42 8 41 32 -2 23 -2 24 -6 4 -3
-17 -12 -23 -34 -24 -16 -1 -35 -2 -41 -3 -7 -1 -13 9 -12 22 1 26 -4 28 -13
6z"/>
<path d="M1110 46 c0 -30 13 -35 70 -27 37 5 46 10 48 29 2 12 -1 22 -7 22 -6
0 -8 -6 -5 -14 7 -18 -3 -23 -51 -27 -36 -3 -40 -1 -39 19 0 12 -3 22 -8 22
-4 0 -8 -11 -8 -24z"/>
</g>
</svg>
